<svg width="18" height="18" viewBox="0 0 18 18" fill="none" xmlns="http://www.w3.org/2000/svg">
    <path d="M5.40551 15.8627H12.5977C14.4918 15.8627 15.2467 14.7029 15.3359 13.2892L15.6928 7.62059C15.7888 6.13823 14.6084 4.88235 13.1192 4.88235C12.7006 4.88235 12.3163 4.64215 12.1241 4.27157L11.63 3.27647C11.3143 2.65196 10.4908 2.13725 9.7908 2.13725H8.21923C7.51237 2.13725 6.68884 2.65196 6.37315 3.27647L5.87904 4.27157C5.68688 4.64215 5.30256 4.88235 4.88394 4.88235C3.39472 4.88235 2.21433 6.13823 2.31041 7.62059L2.66727 13.2892C2.74962 14.7029 3.51139 15.8627 5.40551 15.8627Z" stroke="white" stroke-width="1.02941" stroke-linecap="round" stroke-linejoin="round"/>
    <path d="M7.96973 6.25491H10.0286" stroke="white" stroke-width="1.02941" stroke-linecap="round" stroke-linejoin="round"/>
    <path d="M8.99943 13.1176C10.2279 13.1176 11.2298 12.1157 11.2298 10.8873C11.2298 9.65882 10.2279 8.65686 8.99943 8.65686C7.771 8.65686 6.76904 9.65882 6.76904 10.8873C6.76904 12.1157 7.771 13.1176 8.99943 13.1176Z" stroke="white" stroke-width="1.02941" stroke-linecap="round" stroke-linejoin="round"/>
</svg>
