<svg width="16" height="16" viewBox="0 0 16 16" fill="none" xmlns="http://www.w3.org/2000/svg">
    <path d="M9.68661 6.31333L6.31328 9.68667C5.87995 9.25333 5.61328 8.66 5.61328 8C5.61328 6.68 6.67995 5.61333 7.99995 5.61333C8.65995 5.61333 9.25328 5.88 9.68661 6.31333Z" stroke="#252525" stroke-linecap="round" stroke-linejoin="round"/>
    <path d="M11.88 3.84667C10.7134 2.96667 9.38002 2.48667 8.00002 2.48667C5.64668 2.48667 3.45335 3.87334 1.92668 6.27334C1.32668 7.21334 1.32668 8.79334 1.92668 9.73334C2.45335 10.56 3.06668 11.2733 3.73335 11.8467" stroke="#252525" stroke-linecap="round" stroke-linejoin="round"/>
    <path d="M5.61328 13.02C6.37328 13.34 7.17995 13.5133 7.99995 13.5133C10.3533 13.5133 12.5466 12.1267 14.0733 9.72667C14.6733 8.78667 14.6733 7.20667 14.0733 6.26667C13.8533 5.92 13.6133 5.59333 13.3666 5.28667" stroke="#252525" stroke-linecap="round" stroke-linejoin="round"/>
    <path d="M10.34 8.46667C10.1666 9.40667 9.39996 10.1733 8.45996 10.3467" stroke="#252525" stroke-linecap="round" stroke-linejoin="round"/>
    <path d="M6.31337 9.68667L1.33337 14.6667" stroke="#252525" stroke-linecap="round" stroke-linejoin="round"/>
    <path d="M14.6668 1.33334L9.68677 6.31334" stroke="#252525" stroke-linecap="round" stroke-linejoin="round"/>
</svg>
