<svg width="16" height="16" viewBox="0 0 16 16" fill="none" xmlns="http://www.w3.org/2000/svg">
    <path d="M10.3866 8.00001C10.3866 9.32001 9.31995 10.3867 7.99995 10.3867C6.67995 10.3867 5.61328 9.32001 5.61328 8.00001C5.61328 6.68001 6.67995 5.61334 7.99995 5.61334C9.31995 5.61334 10.3866 6.68001 10.3866 8.00001Z" stroke="#252525" stroke-linecap="round" stroke-linejoin="round"/>
    <path d="M8.00014 13.5133C10.3535 13.5133 12.5468 12.1267 14.0735 9.72668C14.6735 8.78668 14.6735 7.20668 14.0735 6.26668C12.5468 3.86668 10.3535 2.48001 8.00014 2.48001C5.64681 2.48001 3.45347 3.86668 1.92681 6.26668C1.32681 7.20668 1.32681 8.78668 1.92681 9.72668C3.45347 12.1267 5.64681 13.5133 8.00014 13.5133Z" stroke="#252525" stroke-linecap="round" stroke-linejoin="round"/>
</svg>
