<svg width="25" height="24" viewBox="0 0 25 24" fill="none" xmlns="http://www.w3.org/2000/svg">
    <path d="M21.1298 8.01002L14.5798 2.77002C13.2998 1.75002 11.2998 1.74002 10.0298 2.76002L3.47977 8.01002C2.53977 8.76002 1.96977 10.26 2.16977 11.44L3.42977 18.98C3.71977 20.67 5.28977 22 6.99977 22H17.5998C19.2898 22 20.8898 20.64 21.1798 18.97L22.4398 11.43C22.6198 10.26 22.0498 8.76002 21.1298 8.01002ZM13.0498 18C13.0498 18.41 12.7098 18.75 12.2998 18.75C11.8898 18.75 11.5498 18.41 11.5498 18V15C11.5498 14.59 11.8898 14.25 12.2998 14.25C12.7098 14.25 13.0498 14.59 13.0498 15V18Z" fill="url(#paint0_linear_710_113)"/>
    <defs>
        <linearGradient id="paint0_linear_710_113" x1="22.4729" y1="-4.23956" x2="-5.82728" y2="5.13339" gradientUnits="userSpaceOnUse">
            <stop stop-color="#01C000"/>
            <stop offset="1" stop-color="#008101"/>
        </linearGradient>
    </defs>
</svg>
