<svg width="20" height="20" viewBox="0 0 20 20" fill="none" xmlns="http://www.w3.org/2000/svg">
    <path d="M10.0001 13.9583C9.66675 13.9583 9.33341 13.9333 9.01675 13.875C7.25008 13.6167 5.64175 12.6 4.62508 11.0917C3.91675 10.025 3.54175 8.78333 3.54175 7.5C3.54175 3.94167 6.44175 1.04167 10.0001 1.04167C13.5584 1.04167 16.4584 3.94167 16.4584 7.5C16.4584 8.78333 16.0834 10.025 15.3751 11.0917C14.3501 12.6083 12.7417 13.6167 10.9584 13.8833C10.6667 13.9333 10.3334 13.9583 10.0001 13.9583ZM10.0001 2.29167C7.12508 2.29167 4.79175 4.625 4.79175 7.5C4.79175 8.54167 5.09175 9.54167 5.65841 10.3917C6.48341 11.6083 7.77508 12.425 9.20841 12.6333C9.74175 12.725 10.2667 12.725 10.7584 12.6333C12.2167 12.425 13.5084 11.6 14.3334 10.3833C14.9001 9.53333 15.2001 8.53332 15.2001 7.49166C15.2084 4.62499 12.8751 2.29167 10.0001 2.29167Z" fill="url(#paint0_linear_710_943)"/>
    <path d="M5.3916 18.825C5.27493 18.825 5.1666 18.8083 5.04993 18.7833C4.50826 18.6583 4.0916 18.2416 3.9666 17.7L3.67493 16.475C3.65826 16.4 3.59993 16.3416 3.5166 16.3166L2.1416 15.9916C1.62493 15.8666 1.2166 15.4833 1.07493 14.975C0.933263 14.4666 1.07493 13.9166 1.44993 13.5416L4.69993 10.2916C4.83326 10.1583 5.0166 10.0916 5.19993 10.1083C5.38326 10.125 5.54993 10.225 5.65826 10.3833C6.48326 11.6 7.77493 12.425 9.2166 12.6333C9.74993 12.725 10.2749 12.725 10.7666 12.6333C12.2249 12.425 13.5166 11.6 14.3416 10.3833C14.4416 10.225 14.6166 10.125 14.7999 10.1083C14.9833 10.0916 15.1666 10.1583 15.2999 10.2916L18.5499 13.5416C18.9249 13.9166 19.0666 14.4666 18.9249 14.975C18.7833 15.4833 18.3666 15.875 17.8583 15.9916L16.4833 16.3166C16.4083 16.3333 16.3499 16.3916 16.3249 16.475L16.0333 17.7C15.9083 18.2416 15.4916 18.6583 14.9499 18.7833C14.4083 18.9166 13.8499 18.725 13.4999 18.3L9.99993 14.275L6.49993 18.3083C6.2166 18.6416 5.8166 18.825 5.3916 18.825ZM5.07493 11.6916L2.33326 14.4333C2.25826 14.5083 2.2666 14.5916 2.28326 14.6416C2.2916 14.6833 2.33326 14.7666 2.43326 14.7833L3.80826 15.1083C4.34993 15.2333 4.7666 15.65 4.8916 16.1916L5.18326 17.4166C5.20826 17.525 5.2916 17.5583 5.3416 17.575C5.3916 17.5833 5.47493 17.5916 5.54993 17.5083L8.7416 13.8333C7.32493 13.5583 6.02493 12.8 5.07493 11.6916ZM11.2583 13.825L14.4499 17.4916C14.5249 17.5833 14.6166 17.5833 14.6666 17.5666C14.7166 17.5583 14.7916 17.5167 14.8249 17.4083L15.1166 16.1833C15.2416 15.6417 15.6583 15.225 16.1999 15.1L17.5749 14.775C17.6749 14.75 17.7166 14.675 17.7249 14.6333C17.7416 14.5916 17.7499 14.5 17.6749 14.425L14.9333 11.6833C13.9749 12.7916 12.6833 13.55 11.2583 13.825Z" fill="url(#paint1_linear_710_943)"/>
    <path d="M11.575 10.7417C11.3584 10.7417 11.1 10.6833 10.7917 10.5L10 10.025L9.20837 10.4917C8.48337 10.925 8.00837 10.675 7.83337 10.55C7.65837 10.425 7.28337 10.05 7.47504 9.22501L7.67504 8.36667L7.00837 7.74999C6.6417 7.38332 6.50837 6.94167 6.63337 6.54167C6.75837 6.14167 7.12504 5.85833 7.6417 5.77499L8.53337 5.625L8.95837 4.69167C9.20004 4.21667 9.57504 3.94999 10 3.94999C10.425 3.94999 10.8084 4.22501 11.0417 4.70001L11.5334 5.68334L12.3584 5.78333C12.8667 5.86667 13.2334 6.14999 13.3667 6.54999C13.4917 6.94999 13.3584 7.39166 12.9917 7.75833L12.3 8.45001L12.5167 9.22501C12.7084 10.05 12.3334 10.425 12.1584 10.55C12.0667 10.625 11.8667 10.7417 11.575 10.7417ZM8.00837 6.99168L8.58337 7.56665C8.85004 7.83332 8.98337 8.28334 8.90004 8.65L8.7417 9.31666L9.40837 8.92499C9.7667 8.71666 10.25 8.71666 10.6 8.92499L11.2667 9.31666L11.1167 8.65C11.0334 8.275 11.1584 7.83332 11.425 7.56665L12 6.99168L11.275 6.86666C10.925 6.80832 10.575 6.55001 10.4167 6.23334L10 5.41667L9.58337 6.25C9.43337 6.55833 9.08337 6.82501 8.73337 6.88334L8.00837 6.99168Z" fill="url(#paint2_linear_710_943)"/>
    <defs>
        <linearGradient id="paint0_linear_710_943" x1="16.4584" y1="-2.98805" x2="-1.57019" y2="2.88231" gradientUnits="userSpaceOnUse">
            <stop stop-color="#01C000"/>
            <stop offset="1" stop-color="#008101"/>
        </linearGradient>
        <linearGradient id="paint1_linear_710_943" x1="18.9789" y1="7.38554" x2="-0.143709" y2="20.2094" gradientUnits="userSpaceOnUse">
            <stop stop-color="#01C000"/>
            <stop offset="1" stop-color="#008101"/>
        </linearGradient>
        <linearGradient id="paint2_linear_710_943" x1="13.4124" y1="1.83114" x2="3.89556" y2="4.94506" gradientUnits="userSpaceOnUse">
            <stop stop-color="#01C000"/>
            <stop offset="1" stop-color="#008101"/>
        </linearGradient>
    </defs>
</svg>
