<svg width="25" height="24" viewBox="0 0 25 24" fill="none" xmlns="http://www.w3.org/2000/svg">
    <path d="M20.0598 8.95999C19.3898 8.21999 18.3798 7.78999 16.9798 7.63999V6.87999C16.9798 5.50999 16.3998 4.18999 15.3798 3.26999C14.3498 2.32999 13.0098 1.88999 11.6198 2.01999C9.22984 2.24999 7.21984 4.55999 7.21984 7.05999V7.63999C5.81984 7.78999 4.80984 8.21999 4.13984 8.95999C3.16984 10.04 3.19984 11.48 3.30984 12.48L4.00984 18.05C4.21984 20 5.00984 22 9.30984 22H14.8898C19.1898 22 19.9798 20 20.1898 18.06L20.8898 12.47C20.9998 11.48 21.0198 10.04 20.0598 8.95999ZM11.7598 3.40999C12.7598 3.31999 13.7098 3.62999 14.4498 4.29999C15.1798 4.95999 15.5898 5.89999 15.5898 6.87999V7.57999H8.60984V7.05999C8.60984 5.27999 10.0798 3.56999 11.7598 3.40999ZM8.51984 13.15H8.50984C7.95984 13.15 7.50984 12.7 7.50984 12.15C7.50984 11.6 7.95984 11.15 8.50984 11.15C9.06984 11.15 9.51984 11.6 9.51984 12.15C9.51984 12.7 9.06984 13.15 8.51984 13.15ZM15.5198 13.15H15.5098C14.9598 13.15 14.5098 12.7 14.5098 12.15C14.5098 11.6 14.9598 11.15 15.5098 11.15C16.0698 11.15 16.5198 11.6 16.5198 12.15C16.5198 12.7 16.0698 13.15 15.5198 13.15Z" fill="url(#paint0_linear_710_2097)"/>
    <defs>
        <linearGradient id="paint0_linear_710_2097" x1="20.9418" y1="-4.24263" x2="-4.27036" y2="3.01586" gradientUnits="userSpaceOnUse">
            <stop stop-color="#01C000"/>
            <stop offset="1" stop-color="#008101"/>
        </linearGradient>
    </defs>
</svg>
