<svg width="25" height="24" viewBox="0 0 25 24" fill="none" xmlns="http://www.w3.org/2000/svg">
    <path d="M20.7102 7.82L13.0102 12.28C12.7002 12.46 12.3102 12.46 11.9902 12.28L4.29021 7.82C3.74021 7.5 3.60021 6.75 4.02021 6.28C4.31021 5.95 4.64021 5.68 4.99021 5.49L10.4102 2.49C11.5702 1.84 13.4502 1.84 14.6102 2.49L20.0302 5.49C20.3802 5.68 20.7102 5.96 21.0002 6.28C21.4002 6.75 21.2602 7.5 20.7102 7.82Z" fill="url(#paint0_linear_710_826)"/>
    <path d="M11.93 14.14V20.96C11.93 21.72 11.16 22.22 10.48 21.89C8.41998 20.88 4.94998 18.99 4.94998 18.99C3.72998 18.3 2.72998 16.56 2.72998 15.13V9.97C2.72998 9.18 3.55998 8.68 4.23998 9.07L11.43 13.24C11.73 13.43 11.93 13.77 11.93 14.14Z" fill="url(#paint1_linear_710_826)"/>
    <path d="M13.0698 14.14V20.96C13.0698 21.72 13.8398 22.22 14.5198 21.89C16.5798 20.88 20.0498 18.99 20.0498 18.99C21.2698 18.3 22.2698 16.56 22.2698 15.13V9.97C22.2698 9.18 21.4398 8.68 20.7598 9.07L13.5698 13.24C13.2698 13.43 13.0698 13.77 13.0698 14.14Z" fill="url(#paint2_linear_710_826)"/>
    <defs>
        <linearGradient id="paint0_linear_710_826" x1="21.2295" y1="-1.24597" x2="0.469471" y2="10.0852" gradientUnits="userSpaceOnUse">
            <stop stop-color="#01C000"/>
            <stop offset="1" stop-color="#008101"/>
        </linearGradient>
        <linearGradient id="paint1_linear_710_826" x1="11.93" y1="4.86066" x2="-1.56248" y2="7.95581" gradientUnits="userSpaceOnUse">
            <stop stop-color="#01C000"/>
            <stop offset="1" stop-color="#008101"/>
        </linearGradient>
        <linearGradient id="paint2_linear_710_826" x1="22.2698" y1="4.86066" x2="8.77737" y2="7.95581" gradientUnits="userSpaceOnUse">
            <stop stop-color="#01C000"/>
            <stop offset="1" stop-color="#008101"/>
        </linearGradient>
    </defs>
</svg>
