<svg width="16" height="16" viewBox="0 0 16 16" fill="none" xmlns="http://www.w3.org/2000/svg">
    <g clip-path="url(#clip0_407_14440)">
        <path d="M8.00043 0.499786C7.20478 0.499786 6.44172 0.815857 5.87911 1.37847C5.3165 1.94108 5.00043 2.70414 5.00043 3.49979V3.99979H4.58543C4.16449 3.99934 3.75959 4.16127 3.45504 4.45185C3.15048 4.74244 2.96974 5.13929 2.95043 5.55979L2.55543 13.7848C2.5453 14.006 2.58006 14.2269 2.65762 14.4343C2.73518 14.6417 2.85393 14.8312 3.0067 14.9914C3.15948 15.1517 3.34312 15.2793 3.54656 15.3667C3.75 15.4541 3.96902 15.4993 4.19043 15.4998H11.8104C12.0318 15.4993 12.2509 15.4541 12.4543 15.3667C12.6577 15.2793 12.8414 15.1517 12.9942 14.9914C13.1469 14.8312 13.2657 14.6417 13.3432 14.4343C13.4208 14.2269 13.4556 14.006 13.4454 13.7848L13.0504 5.55979C13.0311 5.13929 12.8504 4.74244 12.5458 4.45185C12.2413 4.16127 11.8364 3.99934 11.4154 3.99979H11.0004V3.49979C11.0004 2.70414 10.6844 1.94108 10.1218 1.37847C9.55914 0.815857 8.79608 0.499786 8.00043 0.499786ZM6.00043 3.49979C6.00043 2.96935 6.21114 2.46065 6.58622 2.08557C6.96129 1.7105 7.47 1.49979 8.00043 1.49979C8.53086 1.49979 9.03957 1.7105 9.41464 2.08557C9.78972 2.46065 10.0004 2.96935 10.0004 3.49979V3.99979H6.00043V3.49979ZM12.0504 5.60479L12.4454 13.8348C12.4486 13.9208 12.4347 14.0066 12.4047 14.0872C12.3747 14.1678 12.329 14.2418 12.2704 14.3048C12.2106 14.3662 12.1391 14.4152 12.0601 14.4486C11.9811 14.4821 11.8962 14.4995 11.8104 14.4998H4.19043C4.10464 14.4995 4.01977 14.4821 3.94078 14.4486C3.86179 14.4152 3.79028 14.3662 3.73043 14.3048C3.67181 14.2418 3.62619 14.1678 3.59616 14.0872C3.56613 14.0066 3.55229 13.9208 3.55543 13.8348L3.95043 5.60479C3.95814 5.44163 4.02844 5.28772 4.1467 5.17504C4.26496 5.06237 4.42209 4.9996 4.58543 4.99979H11.4154C11.5788 4.9996 11.7359 5.06237 11.8542 5.17504C11.9724 5.28772 12.0427 5.44163 12.0504 5.60479Z" fill="white"/>
    </g>
    <defs>
        <clipPath id="clip0_407_14440">
            <rect width="16" height="16" fill="white"/>
        </clipPath>
    </defs>
</svg>
