<svg width="25" height="24" viewBox="0 0 25 24" fill="none" xmlns="http://www.w3.org/2000/svg">
    <path d="M17.0899 2H8.7099C5.0699 2 2.8999 4.17 2.8999 7.81V16.18C2.8999 19.83 5.0699 22 8.7099 22H17.0799C20.7199 22 22.8899 19.83 22.8899 16.19V7.81C22.8999 4.17 20.7299 2 17.0899 2ZM16.6499 15.75H9.1499C8.7399 15.75 8.3999 15.41 8.3999 15C8.3999 14.59 8.7399 14.25 9.1499 14.25H16.6499C17.0599 14.25 17.3999 14.59 17.3999 15C17.3999 15.41 17.0599 15.75 16.6499 15.75ZM16.6499 9.75H9.1499C8.7399 9.75 8.3999 9.41 8.3999 9C8.3999 8.59 8.7399 8.25 9.1499 8.25H16.6499C17.0599 8.25 17.3999 8.59 17.3999 9C17.3999 9.41 17.0599 9.75 16.6499 9.75Z" fill="url(#paint0_linear_710_982)"/>
    <defs>
        <linearGradient id="paint0_linear_710_982" x1="22.8899" y1="-4.23955" x2="-5.01408" y2="4.84185" gradientUnits="userSpaceOnUse">
            <stop stop-color="#01C000"/>
            <stop offset="1" stop-color="#008101"/>
        </linearGradient>
    </defs>
</svg>
